<svg version="1.1" id="Layer_1" xmlns="http://www.w3.org/2000/svg" xmlns:xlink="http://www.w3.org/1999/xlink" x="0px" y="0px"
	 width="100%" viewBox="0 0 2048 2048" enable-background="new 0 0 2048 2048" xml:space="preserve">
<path fill="#000000" opacity="1.000000" stroke="none" 
	d="
M2049.000000,711.000000 
	C2049.000000,1157.333374 2049.000000,1603.166626 2049.000000,2049.000000 
	C1366.333374,2049.000000 683.666687,2049.000000 1.000000,2049.000000 
	C1.000000,1366.333374 1.000000,683.666687 1.000000,1.000000 
	C683.666687,1.000000 1366.333374,1.000000 2049.000000,1.000000 
	C2049.000000,237.500000 2049.000000,474.000000 2049.000000,711.000000 
M377.017731,1751.522583 
	C381.604889,1755.441284 386.138641,1759.424561 390.789520,1763.265991 
	C403.836426,1774.042358 416.802124,1784.923218 430.048828,1795.449463 
	C440.643494,1803.868408 451.288513,1812.291016 462.470734,1819.888428 
	C481.405457,1832.753418 500.495575,1845.439697 520.054993,1857.320801 
	C538.729675,1868.664429 557.813599,1879.412598 577.220215,1889.451050 
	C596.363159,1899.353027 615.988586,1908.367554 635.679565,1917.149780 
	C651.232727,1924.086426 666.994690,1930.678223 683.041016,1936.357666 
	C709.305176,1945.653564 735.629639,1954.941284 762.391602,1962.619019 
	C785.534302,1969.258423 809.254700,1973.967529 832.843811,1978.941040 
	C850.981445,1982.765381 869.246338,1986.112305 887.575806,1988.864258 
	C904.871826,1991.461060 922.294495,1993.359863 939.719910,1994.908081 
	C956.297180,1996.381104 972.951416,1997.847168 989.569275,1997.819824 
	C1021.928589,1997.766724 1054.292236,1996.869873 1086.641357,1995.899658 
	C1099.252686,1995.521362 1111.847900,1994.189209 1124.417480,1992.954468 
	C1139.393188,1991.483521 1154.421021,1990.199707 1169.267334,1987.836792 
	C1188.676025,1984.747803 1208.049194,1981.214966 1227.218872,1976.900757 
	C1251.481079,1971.440308 1275.688354,1965.585449 1299.611572,1958.813110 
	C1321.355469,1952.657715 1342.946411,1945.744385 1364.127075,1937.878296 
	C1384.871460,1930.174316 1405.346191,1921.549072 1425.337891,1912.061157 
	C1453.089966,1898.890137 1480.796509,1885.454346 1507.559448,1870.417725 
	C1531.862915,1856.763184 1555.106201,1841.160034 1578.380859,1825.757202 
	C1593.705200,1815.615845 1608.474854,1804.591919 1623.081055,1793.424683 
	C1633.609619,1785.375610 1643.589355,1776.587769 1653.582520,1767.864502 
	C1668.621582,1754.736938 1683.893433,1741.831299 1698.284058,1728.016235 
	C1722.990845,1704.298340 1746.754517,1679.636475 1768.444580,1653.062256 
	C1777.821777,1641.573608 1787.964600,1630.640381 1796.564453,1618.601074 
	C1815.379761,1592.260254 1834.098389,1565.802124 1851.581787,1538.573486 
	C1865.333740,1517.156128 1877.894287,1494.886963 1889.661377,1472.306885 
	C1901.019531,1450.511597 1911.114624,1428.021729 1920.955200,1405.483398 
	C1928.636597,1387.890625 1935.466919,1369.896606 1941.986694,1351.832275 
	C1954.703003,1316.598755 1965.419312,1280.744629 1973.391602,1244.117554 
	C1977.079712,1227.173462 1980.911133,1210.240723 1983.865723,1193.162354 
	C1986.787109,1176.276978 1988.861694,1159.236572 1990.979858,1142.223389 
	C1992.883301,1126.933838 1994.538086,1111.606812 1995.931519,1096.262573 
	C1996.940430,1085.150269 1997.900269,1073.983154 1997.903320,1062.840210 
	C1997.910645,1036.104126 1997.620972,1009.360168 1996.900757,982.634216 
	C1996.466553,966.523254 1995.058594,950.436279 1993.974854,934.346130 
	C1993.433960,926.313110 1992.938721,918.257935 1991.891479,910.282532 
	C1990.154297,897.050964 1988.151001,883.848633 1985.959473,870.684021 
	C1983.480103,855.790649 1981.101196,840.858826 1977.900513,826.112671 
	C1973.273071,804.793335 1968.725342,783.402100 1962.709595,762.453308 
	C1955.988892,739.049194 1948.083008,715.956360 1939.908203,693.007690 
	C1933.238525,674.284424 1926.313599,655.551514 1917.900024,637.572388 
	C1903.555908,606.920227 1888.401001,576.622620 1872.705688,546.637329 
	C1864.050049,530.101257 1853.978271,514.261597 1843.877686,498.536560 
	C1825.058350,469.237854 1805.019287,440.769714 1782.551392,414.119507 
	C1766.033203,394.526642 1749.690918,374.733795 1732.216919,356.013214 
	C1715.919434,338.553284 1698.303101,322.317230 1681.117798,305.696991 
	C1675.095459,299.872589 1668.775513,294.331451 1662.333862,288.970551 
	C1649.958252,278.671234 1637.625488,268.297516 1624.857666,258.498260 
	C1609.003296,246.329941 1592.914917,234.443771 1576.569214,222.945251 
	C1564.202393,214.245728 1551.505615,205.958481 1538.541504,198.177933 
	C1518.251953,186.001190 1497.874512,173.920425 1477.040039,162.718246 
	C1459.846191,153.473602 1442.227539,144.878067 1424.274658,137.219513 
	C1397.987305,126.005478 1371.474121,115.218803 1344.603271,105.505394 
	C1322.124634,97.379646 1299.188232,90.334167 1276.097290,84.142403 
	C1254.824463,78.438141 1233.140015,74.184502 1211.517578,69.893631 
	C1192.708618,66.161095 1173.783569,62.927982 1154.814575,60.115284 
	C1139.917114,57.906292 1124.899902,56.379639 1109.889404,55.091839 
	C1093.989380,53.727715 1078.032349,52.145779 1062.103516,52.179863 
	C1029.243652,52.250179 996.375122,53.015076 963.531921,54.133823 
	C947.626343,54.675621 931.749878,56.462517 915.897278,58.054234 
	C902.072449,59.442345 888.224915,60.892345 874.522522,63.139317 
	C857.235229,65.974152 840.083679,69.637680 822.876282,72.957932 
	C792.909729,78.740112 763.450439,86.542679 734.446533,95.960358 
	C715.194763,102.211464 695.952026,108.631248 677.154114,116.104591 
	C651.813599,126.179054 626.634705,136.756912 601.898254,148.222946 
	C583.027283,156.970215 564.520081,166.705154 546.626587,177.309464 
	C521.599304,192.141479 496.764923,207.424332 472.825806,223.932266 
	C448.216888,240.902084 424.398956,259.091705 400.970367,277.674835 
	C385.352295,290.062775 370.648163,303.683075 356.220917,317.469635 
	C341.836853,331.214966 328.164948,345.719330 314.453888,360.150391 
	C304.930084,370.174286 295.702148,380.493164 286.643982,390.942017 
	C276.317444,402.854156 265.952728,414.766785 256.286133,427.208710 
	C244.835602,441.946899 233.425156,456.801331 223.230103,472.410553 
	C206.594040,497.881134 190.068771,523.504272 175.157196,549.997620 
	C161.362213,574.507080 148.942810,599.881531 137.398849,625.541443 
	C126.151787,650.541382 116.090691,676.136597 106.791771,701.932922 
	C98.298950,725.493103 90.711868,749.454712 84.227066,773.642029 
	C78.118538,796.425903 73.678665,819.676941 69.053589,842.832092 
	C65.589149,860.176758 62.661747,877.646973 60.117542,895.151672 
	C57.954090,910.036682 56.372849,925.024780 55.095100,940.015076 
	C53.722687,956.116028 52.147587,972.274536 52.180656,988.404785 
	C52.248390,1021.438416 53.018227,1054.480591 54.136292,1087.497803 
	C54.663677,1103.071899 56.432301,1118.620239 58.057201,1134.136475 
	C59.760986,1150.405884 61.411243,1166.714966 64.091797,1182.839355 
	C67.508011,1203.389038 71.296982,1223.921631 76.095108,1244.184570 
	C81.490608,1266.970459 87.673347,1289.604370 94.479271,1312.011108 
	C100.286415,1331.129761 106.778641,1350.105957 114.194603,1368.654663 
	C124.762787,1395.087646 135.769638,1421.393311 147.874298,1447.149292 
	C157.969055,1468.628540 169.126892,1489.705078 181.235764,1510.116455 
	C196.426178,1535.722046 212.490982,1560.859375 229.248138,1585.470459 
	C245.409470,1609.206543 262.865265,1632.063232 282.013580,1653.553223 
	C294.144562,1667.167847 305.568634,1681.462891 318.317261,1694.464844 
	C337.248322,1713.771851 357.071503,1732.204346 377.017731,1751.522583 
z"/>
<path fill="#AAAAAA" opacity="1.000000" stroke="none" 
	d="
M376.766296,1751.265869 
	C357.071503,1732.204346 337.248322,1713.771851 318.317261,1694.464844 
	C305.568634,1681.462891 294.144562,1667.167847 282.013580,1653.553223 
	C262.865265,1632.063232 245.409470,1609.206543 229.248138,1585.470459 
	C212.490982,1560.859375 196.426178,1535.722046 181.235764,1510.116455 
	C169.126892,1489.705078 157.969055,1468.628540 147.874298,1447.149292 
	C135.769638,1421.393311 124.762787,1395.087646 114.194603,1368.654663 
	C106.778641,1350.105957 100.286415,1331.129761 94.479271,1312.011108 
	C87.673347,1289.604370 81.490608,1266.970459 76.095108,1244.184570 
	C71.296982,1223.921631 67.508011,1203.389038 64.091797,1182.839355 
	C61.411243,1166.714966 59.760986,1150.405884 58.057201,1134.136475 
	C56.432301,1118.620239 54.663677,1103.071899 54.136292,1087.497803 
	C53.018227,1054.480591 52.248390,1021.438416 52.180656,988.404785 
	C52.147587,972.274536 53.722687,956.116028 55.095100,940.015076 
	C56.372849,925.024780 57.954090,910.036682 60.117542,895.151672 
	C62.661747,877.646973 65.589149,860.176758 69.053589,842.832092 
	C73.678665,819.676941 78.118538,796.425903 84.227066,773.642029 
	C90.711868,749.454712 98.298950,725.493103 106.791771,701.932922 
	C116.090691,676.136597 126.151787,650.541382 137.398849,625.541443 
	C148.942810,599.881531 161.362213,574.507080 175.157196,549.997620 
	C190.068771,523.504272 206.594040,497.881134 223.230103,472.410553 
	C233.425156,456.801331 244.835602,441.946899 256.286133,427.208710 
	C265.952728,414.766785 276.317444,402.854156 286.643982,390.942017 
	C295.702148,380.493164 304.930084,370.174286 314.453888,360.150391 
	C328.164948,345.719330 341.836853,331.214966 356.220917,317.469635 
	C370.648163,303.683075 385.352295,290.062775 400.970367,277.674835 
	C424.398956,259.091705 448.216888,240.902084 472.825806,223.932266 
	C496.764923,207.424332 521.599304,192.141479 546.626587,177.309464 
	C564.520081,166.705154 583.027283,156.970215 601.898254,148.222946 
	C626.634705,136.756912 651.813599,126.179054 677.154114,116.104591 
	C695.952026,108.631248 715.194763,102.211464 734.446533,95.960358 
	C763.450439,86.542679 792.909729,78.740112 822.876282,72.957932 
	C840.083679,69.637680 857.235229,65.974152 874.522522,63.139317 
	C888.224915,60.892345 902.072449,59.442345 915.897278,58.054234 
	C931.749878,56.462517 947.626343,54.675621 963.531921,54.133823 
	C996.375122,53.015076 1029.243652,52.250179 1062.103516,52.179863 
	C1078.032349,52.145779 1093.989380,53.727715 1109.889404,55.091839 
	C1124.899902,56.379639 1139.917114,57.906292 1154.814575,60.115284 
	C1173.783569,62.927982 1192.708618,66.161095 1211.517578,69.893631 
	C1233.140015,74.184502 1254.824463,78.438141 1276.097290,84.142403 
	C1299.188232,90.334167 1322.124634,97.379646 1344.603271,105.505394 
	C1371.474121,115.218803 1397.987305,126.005478 1424.274658,137.219513 
	C1442.227539,144.878067 1459.846191,153.473602 1477.040039,162.718246 
	C1497.874512,173.920425 1518.251953,186.001190 1538.541504,198.177933 
	C1551.505615,205.958481 1564.202393,214.245728 1576.569214,222.945251 
	C1592.914917,234.443771 1609.003296,246.329941 1624.857666,258.498260 
	C1637.625488,268.297516 1649.958252,278.671234 1662.333862,288.970551 
	C1668.775513,294.331451 1675.095459,299.872589 1681.117798,305.696991 
	C1698.303101,322.317230 1715.919434,338.553284 1732.216919,356.013214 
	C1749.690918,374.733795 1766.033203,394.526642 1782.551392,414.119507 
	C1805.019287,440.769714 1825.058350,469.237854 1843.877686,498.536560 
	C1853.978271,514.261597 1864.050049,530.101257 1872.705688,546.637329 
	C1888.401001,576.622620 1903.555908,606.920227 1917.900024,637.572388 
	C1926.313599,655.551514 1933.238525,674.284424 1939.908203,693.007690 
	C1948.083008,715.956360 1955.988892,739.049194 1962.709595,762.453308 
	C1968.725342,783.402100 1973.273071,804.793335 1977.900513,826.112671 
	C1981.101196,840.858826 1983.480103,855.790649 1985.959473,870.684021 
	C1988.151001,883.848633 1990.154297,897.050964 1991.891479,910.282532 
	C1992.938721,918.257935 1993.433960,926.313110 1993.974854,934.346130 
	C1995.058594,950.436279 1996.466553,966.523254 1996.900757,982.634216 
	C1997.620972,1009.360168 1997.910645,1036.104126 1997.903320,1062.840210 
	C1997.900269,1073.983154 1996.940430,1085.150269 1995.931519,1096.262573 
	C1994.538086,1111.606812 1992.883301,1126.933838 1990.979858,1142.223389 
	C1988.861694,1159.236572 1986.787109,1176.276978 1983.865723,1193.162354 
	C1980.911133,1210.240723 1977.079712,1227.173462 1973.391602,1244.117554 
	C1965.419312,1280.744629 1954.703003,1316.598755 1941.986694,1351.832275 
	C1935.466919,1369.896606 1928.636597,1387.890625 1920.955200,1405.483398 
	C1911.114624,1428.021729 1901.019531,1450.511597 1889.661377,1472.306885 
	C1877.894287,1494.886963 1865.333740,1517.156128 1851.581787,1538.573486 
	C1834.098389,1565.802124 1815.379761,1592.260254 1796.564453,1618.601074 
	C1787.964600,1630.640381 1777.821777,1641.573608 1768.444580,1653.062256 
	C1746.754517,1679.636475 1722.990845,1704.298340 1698.284058,1728.016235 
	C1683.893433,1741.831299 1668.621582,1754.736938 1653.582520,1767.864502 
	C1643.589355,1776.587769 1633.609619,1785.375610 1623.081055,1793.424683 
	C1608.474854,1804.591919 1593.705200,1815.615845 1578.380859,1825.757202 
	C1555.106201,1841.160034 1531.862915,1856.763184 1507.559448,1870.417725 
	C1480.796509,1885.454346 1453.089966,1898.890137 1425.337891,1912.061157 
	C1405.346191,1921.549072 1384.871460,1930.174316 1364.127075,1937.878296 
	C1342.946411,1945.744385 1321.355469,1952.657715 1299.611572,1958.813110 
	C1275.688354,1965.585449 1251.481079,1971.440308 1227.218872,1976.900757 
	C1208.049194,1981.214966 1188.676025,1984.747803 1169.267334,1987.836792 
	C1154.421021,1990.199707 1139.393188,1991.483521 1124.417480,1992.954468 
	C1111.847900,1994.189209 1099.252686,1995.521362 1086.641357,1995.899658 
	C1054.292236,1996.869873 1021.928589,1997.766724 989.569275,1997.819824 
	C972.951416,1997.847168 956.297180,1996.381104 939.719910,1994.908081 
	C922.294495,1993.359863 904.871826,1991.461060 887.575806,1988.864258 
	C869.246338,1986.112305 850.981445,1982.765381 832.843811,1978.941040 
	C809.254700,1973.967529 785.534302,1969.258423 762.391602,1962.619019 
	C735.629639,1954.941284 709.305176,1945.653564 683.041016,1936.357666 
	C666.994690,1930.678223 651.232727,1924.086426 635.679565,1917.149780 
	C615.988586,1908.367554 596.363159,1899.353027 577.220215,1889.451050 
	C557.813599,1879.412598 538.729675,1868.664429 520.054993,1857.320801 
	C500.495575,1845.439697 481.405457,1832.753418 462.470734,1819.888428 
	C451.288513,1812.291016 440.643494,1803.868408 430.048828,1795.449463 
	C416.802124,1784.923218 403.836426,1774.042358 390.789520,1763.265991 
	C386.138641,1759.424561 381.604889,1755.441284 376.766296,1751.265869 
M1795.563599,1561.063843 
	C1852.623169,1479.013306 1895.627075,1390.187744 1924.338013,1294.432251 
	C1946.498047,1220.525635 1959.129028,1145.006104 1962.751099,1067.987427 
	C1964.481689,1031.185059 1963.814209,994.392639 1961.225342,957.613159 
	C1958.344238,916.686218 1952.857178,876.130920 1944.619141,835.973206 
	C1929.626465,762.889343 1906.345093,692.511230 1874.379272,625.070862 
	C1818.972534,508.174835 1742.834839,406.841553 1645.901978,321.140930 
	C1570.237915,254.244431 1485.955566,200.940216 1393.105591,161.292404 
	C1312.834106,127.015633 1229.352051,104.471123 1142.685059,93.679268 
	C1106.936401,89.227791 1071.061157,86.376160 1035.086182,86.469421 
	C1005.135681,86.547050 975.153076,88.033768 945.251648,89.944077 
	C900.637756,92.794319 856.632812,100.267700 813.118896,110.344604 
	C722.926636,131.231232 637.600830,164.700897 557.391052,210.955551 
	C470.968933,260.792664 394.276794,322.746735 327.502106,396.913208 
	C260.738647,471.067169 207.016006,553.695312 166.534317,644.904480 
	C126.346848,735.450684 101.299545,830.059387 91.216003,928.571350 
	C87.177246,968.028259 85.518646,1007.610474 86.652962,1047.321777 
	C87.643219,1081.989746 90.244659,1116.479980 94.764343,1150.857056 
	C102.582222,1210.320801 116.226280,1268.434570 135.384079,1325.224121 
	C161.944153,1403.956055 198.403610,1477.871216 244.714462,1546.874634 
	C298.605865,1627.173096 363.279388,1697.595459 438.773132,1758.058716 
	C500.209259,1807.263306 566.754211,1848.192261 638.477234,1880.579102 
	C721.894775,1918.246826 808.983582,1943.181519 899.760071,1955.308350 
	C938.287842,1960.455444 976.964722,1963.249268 1015.785950,1963.664551 
	C1061.138916,1964.149536 1106.314209,1961.226929 1151.300049,1955.189209 
	C1210.738892,1947.211426 1268.872559,1933.698608 1325.635132,1914.438599 
	C1457.217041,1869.792114 1573.140259,1799.173340 1673.719482,1703.404663 
	C1718.989746,1660.299561 1759.387451,1612.942871 1795.563599,1561.063843 
z"/>
<path fill="#FFFFFF" opacity="1.000000" stroke="none" 
	d="
M1795.355469,1561.357910 
	C1759.387451,1612.942871 1718.989746,1660.299561 1673.719482,1703.404663 
	C1573.140259,1799.173340 1457.217041,1869.792114 1325.635132,1914.438599 
	C1268.872559,1933.698608 1210.738892,1947.211426 1151.300049,1955.189209 
	C1106.314209,1961.226929 1061.138916,1964.149536 1015.785950,1963.664551 
	C976.964722,1963.249268 938.287842,1960.455444 899.760071,1955.308350 
	C808.983582,1943.181519 721.894775,1918.246826 638.477234,1880.579102 
	C566.754211,1848.192261 500.209259,1807.263306 438.773132,1758.058716 
	C363.279388,1697.595459 298.605865,1627.173096 244.714462,1546.874634 
	C198.403610,1477.871216 161.944153,1403.956055 135.384079,1325.224121 
	C116.226280,1268.434570 102.582222,1210.320801 94.764343,1150.857056 
	C90.244659,1116.479980 87.643219,1081.989746 86.652962,1047.321777 
	C85.518646,1007.610474 87.177246,968.028259 91.216003,928.571350 
	C101.299545,830.059387 126.346848,735.450684 166.534317,644.904480 
	C207.016006,553.695312 260.738647,471.067169 327.502106,396.913208 
	C394.276794,322.746735 470.968933,260.792664 557.391052,210.955551 
	C637.600830,164.700897 722.926636,131.231232 813.118896,110.344604 
	C856.632812,100.267700 900.637756,92.794319 945.251648,89.944077 
	C975.153076,88.033768 1005.135681,86.547050 1035.086182,86.469421 
	C1071.061157,86.376160 1106.936401,89.227791 1142.685059,93.679268 
	C1229.352051,104.471123 1312.834106,127.015633 1393.105591,161.292404 
	C1485.955566,200.940216 1570.237915,254.244431 1645.901978,321.140930 
	C1742.834839,406.841553 1818.972534,508.174835 1874.379272,625.070862 
	C1906.345093,692.511230 1929.626465,762.889343 1944.619141,835.973206 
	C1952.857178,876.130920 1958.344238,916.686218 1961.225342,957.613159 
	C1963.814209,994.392639 1964.481689,1031.185059 1962.751099,1067.987427 
	C1959.129028,1145.006104 1946.498047,1220.525635 1924.338013,1294.432251 
	C1895.627075,1390.187744 1852.623169,1479.013306 1795.355469,1561.357910 
M1072.272461,893.852356 
	C1078.615356,877.036255 1084.958252,860.220093 1091.301025,843.403992 
	C1091.724365,843.493591 1092.147705,843.583191 1092.571045,843.672729 
	C1092.571045,895.047668 1092.571045,946.422546 1092.571045,997.651001 
	C1100.728882,997.651001 1108.305664,997.651001 1115.670410,997.651001 
	C1115.670410,937.733093 1115.670410,878.172607 1115.670410,818.286133 
	C1105.336060,818.286133 1095.355225,818.497070 1085.390747,818.185242 
	C1081.244141,818.055481 1079.392822,819.343323 1077.919312,823.319824 
	C1064.117554,860.566528 1050.062866,897.719543 1036.068115,934.894653 
	C1035.521484,936.346924 1034.843018,937.749573 1033.822510,940.107788 
	C1030.601074,931.513672 1027.757568,923.943726 1024.925537,916.369446 
	C1013.226135,885.079163 1001.555298,853.778198 989.760986,822.523804 
	C989.153625,820.914185 987.531433,818.518494 986.326843,818.485413 
	C975.054016,818.175293 963.769165,818.301514 952.307556,818.301514 
	C952.307556,878.443787 952.307556,938.007812 952.307556,997.747375 
	C960.123962,997.747375 967.692383,997.747375 975.869202,997.747375 
	C975.869202,946.216736 975.869202,894.942810 975.869202,843.668823 
	C977.463318,845.362549 978.226990,847.145203 978.907104,848.959167 
	C992.618713,885.529480 1006.388000,922.078491 1019.924438,958.713562 
	C1021.333435,962.526733 1023.118469,963.860718 1027.091675,963.550659 
	C1031.894775,963.175781 1036.768677,963.198242 1041.575684,963.547485 
	C1045.236816,963.813477 1046.765137,962.395386 1047.986450,959.062927 
	C1055.878418,937.528442 1063.994873,916.076233 1072.272461,893.852356 
M560.818970,858.500061 
	C560.818970,845.241516 560.818970,831.983032 560.818970,818.642456 
	C552.570312,818.642456 545.007385,818.642456 536.898071,818.642456 
	C536.898071,868.123718 536.898071,917.250793 536.898071,966.377869 
	C533.484375,961.538818 530.827637,956.593079 528.204529,951.629578 
	C505.441956,908.558350 482.698944,865.476746 459.873535,822.438782 
	C459.029907,820.848145 457.435303,818.530762 456.128845,818.488953 
	C445.871948,818.161743 435.599976,818.307556 425.360107,818.307556 
	C425.360107,878.560425 425.360107,938.121704 425.360107,997.690063 
	C433.228394,997.690063 440.793152,997.690063 448.838806,997.690063 
	C448.838806,948.359680 448.838806,899.344849 448.838806,850.330078 
	C450.490387,851.441528 451.278595,852.785767 452.006531,854.161987 
	C476.651886,900.752563 501.279053,947.352661 525.985291,993.910828 
	C526.821777,995.487122 528.410522,997.778015 529.709045,997.818848 
	C539.959045,998.141846 550.223755,997.998352 560.818970,997.998352 
	C560.818970,951.403748 560.818970,905.451904 560.818970,858.500061 
M1322.440918,1118.974121 
	C1297.047974,1118.974121 1271.655029,1118.974121 1246.307983,1118.974121 
	C1246.307983,1178.361938 1246.307983,1237.961426 1246.307983,1297.845581 
	C1247.494263,1297.905640 1248.455444,1297.996704 1249.416748,1297.996582 
	C1270.581665,1297.993774 1291.748413,1298.127930 1312.910522,1297.879883 
	C1319.203369,1297.806030 1325.566284,1297.089966 1331.755005,1295.918091 
	C1354.982544,1291.519897 1369.397461,1277.937256 1372.494995,1256.536377 
	C1376.316528,1230.131836 1364.739868,1209.493530 1339.963501,1202.035645 
	C1339.297485,1201.835205 1338.686035,1201.453247 1337.196167,1200.757690 
	C1345.878662,1198.578491 1352.814941,1195.311523 1357.915771,1188.920532 
	C1371.439209,1171.977173 1367.278442,1141.546265 1349.712402,1128.885620 
	C1341.802490,1123.184570 1332.789551,1120.520874 1322.440918,1118.974121 
M598.935181,902.559082 
	C599.287292,910.533020 599.135376,918.567078 600.077271,926.470764 
	C604.590515,964.342590 629.460876,996.570801 671.920471,1000.571106 
	C715.767578,1004.702026 747.006897,982.461975 759.107239,945.567383 
	C765.462341,926.190430 766.000000,906.325989 762.953979,886.335327 
	C757.317322,849.342285 732.118896,819.174255 691.782166,815.462646 
	C654.578613,812.039307 623.191772,826.958862 607.374390,862.312744 
	C601.804077,874.763062 599.461609,887.997375 598.935181,902.559082 
M1429.164185,837.122131 
	C1444.049072,840.523743 1457.075073,847.785767 1469.687988,857.744263 
	C1469.687988,850.033142 1469.402466,843.546387 1469.793823,837.100708 
	C1470.033691,833.148438 1468.541382,831.158508 1465.211060,829.365479 
	C1440.038208,815.812622 1413.304077,811.975098 1385.395752,817.017883 
	C1353.980957,822.694275 1332.744385,840.828796 1323.077148,871.368469 
	C1315.610107,894.957764 1315.695435,919.041809 1322.433960,942.770264 
	C1329.442627,967.449585 1344.668091,985.891968 1369.133789,994.395081 
	C1404.636963,1006.734192 1438.947632,1002.682739 1471.061890,982.819092 
	C1472.708862,981.800415 1474.037109,978.899414 1474.068481,976.852722 
	C1474.313110,960.863525 1474.203979,944.868896 1474.204102,928.875977 
	C1474.204102,920.751160 1474.204102,912.626404 1474.204102,904.253845 
	C1452.924438,904.253845 1432.034790,904.253845 1411.077148,904.253845 
	C1411.077148,910.899902 1411.077148,917.283386 1411.077148,924.199829 
	C1424.272705,924.199829 1437.163086,924.199829 1450.185669,924.199829 
	C1450.185669,939.061279 1450.061035,953.387268 1450.277466,967.708069 
	C1450.328491,971.095886 1449.212402,972.777893 1446.205566,974.097717 
	C1430.313721,981.073669 1413.704346,982.209167 1396.775391,980.169556 
	C1369.542114,976.888428 1352.624390,962.032288 1346.369141,935.600525 
	C1342.049805,917.348267 1342.058228,898.879761 1346.328247,880.624512 
	C1351.673706,857.771973 1365.248901,842.471619 1388.684570,837.142273 
	C1401.847168,834.148926 1415.106201,834.180603 1429.164185,837.122131 
M1181.644653,1196.843994 
	C1172.238647,1172.164185 1162.763916,1147.510254 1153.507446,1122.774414 
	C1152.250854,1119.416504 1150.609619,1118.215698 1147.058838,1118.401367 
	C1141.245728,1118.705322 1135.388306,1118.752808 1129.582031,1118.389893 
	C1125.627686,1118.142944 1123.850830,1119.434326 1122.422241,1123.215454 
	C1102.343872,1176.357056 1082.074951,1229.426514 1061.852783,1282.513794 
	C1059.935059,1287.548340 1058.021118,1292.584473 1056.043213,1297.783203 
	C1064.940186,1297.783203 1073.235474,1297.783203 1081.575317,1297.783203 
	C1086.455566,1283.982544 1091.372314,1270.397095 1096.017822,1256.719360 
	C1097.186890,1253.276978 1098.688599,1251.815186 1102.602539,1251.895020 
	C1116.419800,1252.176392 1130.246216,1252.004272 1144.069214,1252.004272 
	C1155.541626,1252.004150 1167.014160,1252.004272 1178.531738,1252.004272 
	C1183.654419,1266.386719 1188.597778,1280.479614 1193.777222,1294.485229 
	C1194.309692,1295.924927 1196.210205,1297.786011 1197.548462,1297.846313 
	C1204.854248,1298.176025 1212.182739,1298.003174 1220.055054,1298.003174 
	C1207.245972,1264.272339 1194.581543,1230.922363 1181.644653,1196.843994 
M1180.118896,897.619995 
	C1167.443481,930.954163 1154.767944,964.288330 1142.021362,997.809570 
	C1150.820557,997.809570 1159.118286,997.809570 1167.565308,997.809570 
	C1172.531006,983.762512 1177.543945,969.871216 1182.302490,955.893250 
	C1183.335571,952.858154 1184.770386,951.840759 1187.978027,951.922424 
	C1197.131836,952.155762 1206.295410,952.004395 1215.455200,952.004395 
	C1231.760010,952.004395 1248.064819,952.004395 1264.489014,952.004395 
	C1265.077393,953.627380 1265.583862,955.004028 1266.076416,956.385681 
	C1270.594604,969.059143 1275.054565,981.753967 1279.704834,994.378845 
	C1280.224243,995.788696 1281.779419,997.791931 1282.923462,997.839050 
	C1290.466187,998.149536 1298.027954,997.999329 1305.486816,997.999329 
	C1305.597412,997.247803 1305.687256,997.059631 1305.636230,996.925049 
	C1283.394043,938.382935 1261.161499,879.837097 1238.768555,821.352661 
	C1238.266113,820.039917 1235.975220,818.683960 1234.459595,818.613281 
	C1227.978516,818.310913 1221.465454,818.698486 1214.984131,818.398926 
	C1211.392212,818.232971 1209.852783,819.487854 1208.594116,822.851074 
	C1199.337158,847.585144 1189.835205,872.227539 1180.118896,897.619995 
M709.187012,1202.676147 
	C697.159241,1234.316772 685.131470,1265.957520 673.017883,1297.823975 
	C681.773743,1297.823975 690.063232,1297.823975 698.537781,1297.823975 
	C703.567200,1283.657715 708.625610,1269.614258 713.496094,1255.505859 
	C714.391418,1252.912231 715.503723,1251.756592 718.412415,1251.930298 
	C723.059021,1252.207520 727.734314,1252.004395 732.397522,1252.004395 
	C753.367249,1252.004395 774.336914,1252.004395 795.490784,1252.004395 
	C796.061340,1253.575073 796.567261,1254.945068 797.057373,1256.320435 
	C801.573242,1268.994873 806.031860,1281.690308 810.676086,1294.317505 
	C811.199524,1295.740723 812.724426,1297.787964 813.855896,1297.834717 
	C821.416504,1298.148560 828.996399,1297.997681 836.466064,1297.997681 
	C836.591309,1297.313721 836.691956,1297.123047 836.641357,1296.989868 
	C814.405090,1238.447144 792.177490,1179.900879 769.792603,1121.415039 
	C769.285095,1120.088989 767.027222,1118.684326 765.526428,1118.615967 
	C758.878601,1118.312378 752.204224,1118.633545 745.549500,1118.417847 
	C742.434692,1118.317017 740.951050,1119.240234 739.796143,1122.321899 
	C729.829163,1148.919800 719.639587,1175.434082 709.187012,1202.676147 
M415.122772,1176.622192 
	C399.779358,1216.952026 384.435913,1257.281982 369.013458,1297.819580 
	C377.782501,1297.819580 386.076935,1297.819580 394.539185,1297.819580 
	C399.573059,1283.642822 404.635406,1269.598755 409.502441,1255.487183 
	C410.403229,1252.875488 411.546326,1251.807739 414.431061,1251.928955 
	C420.416016,1252.179932 426.418884,1252.004395 432.414368,1252.004395 
	C452.051147,1252.004395 471.687958,1252.004395 491.489594,1252.004395 
	C492.065369,1253.590332 492.571411,1254.962158 493.062256,1256.339355 
	C497.578949,1269.013428 502.038208,1281.708618 506.684326,1294.335083 
	C507.206635,1295.754517 508.740204,1297.789185 509.875275,1297.836060 
	C517.430725,1298.148926 525.005310,1297.998169 532.466003,1297.998169 
	C532.594788,1297.294678 532.695496,1297.104004 532.644836,1296.970825 
	C510.405548,1238.428467 488.174805,1179.882812 465.785950,1121.397705 
	C465.279785,1120.075317 463.012451,1118.683472 461.507965,1118.615234 
	C454.860016,1118.313110 448.185547,1118.636108 441.531097,1118.417114 
	C438.403442,1118.314331 436.927490,1119.262817 435.788147,1122.338867 
	C429.153778,1140.250977 422.237427,1158.058594 415.122772,1176.622192 
M1634.500000,1139.001465 
	C1644.625244,1139.001465 1654.750488,1139.001465 1664.997925,1139.001465 
	C1664.997925,1132.007690 1664.997925,1125.467529 1664.997925,1118.900391 
	C1627.260742,1118.900391 1589.870972,1118.900391 1552.424561,1118.900391 
	C1552.424561,1178.746094 1552.424561,1238.272217 1552.424561,1297.791992 
	C1590.884521,1297.791992 1628.987671,1297.791992 1667.232422,1297.791992 
	C1667.232422,1291.042358 1667.232422,1284.507690 1667.232422,1277.409424 
	C1636.781128,1277.409424 1606.714478,1277.409424 1576.524048,1277.409424 
	C1576.524048,1255.580933 1576.524048,1234.325684 1576.524048,1212.384766 
	C1604.953979,1212.384766 1633.151733,1212.384766 1661.519531,1212.384766 
	C1661.519531,1205.283447 1661.519531,1198.870605 1661.519531,1191.905029 
	C1633.059082,1191.905029 1604.851074,1191.905029 1576.663330,1191.905029 
	C1576.663330,1173.971191 1576.663330,1156.594116 1576.663330,1139.001465 
	C1595.862915,1139.001465 1614.681396,1139.001465 1634.500000,1139.001465 
M1631.182007,819.502869 
	C1629.626099,819.195862 1628.070557,818.623047 1626.514282,818.620728 
	C1592.028442,818.569580 1557.542603,818.577698 1523.056763,818.594849 
	C1521.476929,818.595642 1519.896973,818.787415 1518.327148,818.889648 
	C1518.327148,878.798950 1518.327148,938.197144 1518.327148,997.701965 
	C1556.796509,997.701965 1595.005859,997.701965 1633.349121,997.701965 
	C1633.349121,990.973877 1633.349121,984.547302 1633.349121,977.396973 
	C1602.895752,977.396973 1572.706543,977.396973 1542.607666,977.396973 
	C1542.607666,955.421204 1542.607666,934.174133 1542.607666,912.432251 
	C1571.014893,912.432251 1599.101318,912.432251 1627.449707,912.432251 
	C1627.449707,905.384460 1627.449707,898.837219 1627.449707,891.932434 
	C1599.023315,891.932434 1570.922607,891.932434 1542.562866,891.932434 
	C1542.562866,874.182861 1542.562866,856.792725 1542.562866,838.915161 
	C1572.244141,838.915161 1601.648193,838.915161 1631.315552,838.915161 
	C1631.315552,832.453796 1631.315552,826.476746 1631.182007,819.502869 
M551.316956,1132.139526 
	C549.976685,1128.560303 548.799866,1124.906006 547.208008,1121.442383 
	C546.645508,1120.218506 545.097229,1118.658813 543.952393,1118.619751 
	C536.517456,1118.366333 529.069641,1118.489624 520.912903,1118.489624 
	C543.864197,1178.720947 566.553467,1238.264404 589.318115,1298.005859 
	C597.114563,1298.005859 604.774963,1297.793945 612.414429,1298.101807 
	C615.855530,1298.240479 617.218079,1297.057251 618.407104,1293.916870 
	C640.055176,1236.737427 661.843140,1179.610840 683.583435,1122.466431 
	C684.023804,1121.308716 684.251038,1120.070068 684.683411,1118.480591 
	C677.730164,1118.480591 671.233704,1118.746460 664.772827,1118.380859 
	C660.900574,1118.161743 659.331543,1119.639404 658.032715,1123.114746 
	C640.466492,1170.116333 622.752808,1217.062744 605.063965,1264.018555 
	C604.526184,1265.445923 603.863098,1266.826172 602.834839,1269.210938 
	C585.496826,1222.994751 568.584717,1177.913818 551.316956,1132.139526 
M959.283752,1196.500122 
	C959.283752,1170.608765 959.283752,1144.717407 959.283752,1118.874512 
	C950.750061,1118.874512 943.020508,1118.874512 935.284912,1118.874512 
	C935.284912,1178.678955 935.284912,1238.095093 935.284912,1297.756836 
	C972.390259,1297.756836 1009.277344,1297.756836 1046.308838,1297.756836 
	C1046.308838,1291.015259 1046.308838,1284.485596 1046.308838,1277.408569 
	C1017.209839,1277.408569 988.482971,1277.408569 959.283752,1277.408569 
	C959.283752,1250.405151 959.283752,1223.952637 959.283752,1196.500122 
M1415.066406,1184.500000 
	C1415.066406,1222.242920 1415.066406,1259.985718 1415.066406,1297.657593 
	C1452.588745,1297.657593 1489.467163,1297.657593 1526.389160,1297.657593 
	C1526.389160,1290.899170 1526.389160,1284.489258 1526.389160,1277.556030 
	C1497.353760,1277.556030 1468.608398,1277.556030 1439.267212,1277.556030 
	C1439.267212,1224.328491 1439.267212,1171.625977 1439.267212,1118.791260 
	C1430.905518,1118.791260 1423.149170,1118.791260 1415.066406,1118.791260 
	C1415.066406,1140.562866 1415.066406,1162.031494 1415.066406,1184.500000 
M887.284058,1153.500122 
	C887.284058,1141.911133 887.284058,1130.322144 887.284058,1118.615967 
	C878.889343,1118.615967 871.159363,1118.615967 863.283203,1118.615967 
	C863.283203,1178.461548 863.283203,1237.984619 863.283203,1297.660156 
	C871.372131,1297.660156 879.240356,1297.660156 887.284058,1297.660156 
	C887.284058,1249.711792 887.284058,1202.106079 887.284058,1153.500122 
M880.066284,866.500000 
	C880.066284,910.218506 880.066284,953.936951 880.066284,997.753662 
	C888.388000,997.753662 896.134338,997.753662 903.869873,997.753662 
	C903.869873,937.879700 903.869873,878.256104 903.869873,818.686890 
	C895.729980,818.686890 888.009460,818.686890 880.066284,818.686890 
	C880.066284,834.552612 880.066284,850.026306 880.066284,866.500000 
z"/>
<path fill="#474747" opacity="1.000000" stroke="none" 
	d="
M1072.155029,894.224731 
	C1063.994873,916.076233 1055.878418,937.528442 1047.986450,959.062927 
	C1046.765137,962.395386 1045.236816,963.813477 1041.575684,963.547485 
	C1036.768677,963.198242 1031.894775,963.175781 1027.091675,963.550659 
	C1023.118469,963.860718 1021.333435,962.526733 1019.924438,958.713562 
	C1006.388000,922.078491 992.618713,885.529480 978.907104,848.959167 
	C978.226990,847.145203 977.463318,845.362549 975.869202,843.668823 
	C975.869202,894.942810 975.869202,946.216736 975.869202,997.747375 
	C967.692383,997.747375 960.123962,997.747375 952.307556,997.747375 
	C952.307556,938.007812 952.307556,878.443787 952.307556,818.301514 
	C963.769165,818.301514 975.054016,818.175293 986.326843,818.485413 
	C987.531433,818.518494 989.153625,820.914185 989.760986,822.523804 
	C1001.555298,853.778198 1013.226135,885.079163 1024.925537,916.369446 
	C1027.757568,923.943726 1030.601074,931.513672 1033.822510,940.107788 
	C1034.843018,937.749573 1035.521484,936.346924 1036.068115,934.894653 
	C1050.062866,897.719543 1064.117554,860.566528 1077.919312,823.319824 
	C1079.392822,819.343323 1081.244141,818.055481 1085.390747,818.185242 
	C1095.355225,818.497070 1105.336060,818.286133 1115.670410,818.286133 
	C1115.670410,878.172607 1115.670410,937.733093 1115.670410,997.651001 
	C1108.305664,997.651001 1100.728882,997.651001 1092.571045,997.651001 
	C1092.571045,946.422546 1092.571045,895.047668 1092.571045,843.672729 
	C1092.147705,843.583191 1091.724365,843.493591 1091.301025,843.403992 
	C1084.958252,860.220093 1078.615356,877.036255 1072.155029,894.224731 
z"/>
<path fill="#474747" opacity="1.000000" stroke="none" 
	d="
M560.818970,859.000122 
	C560.818970,905.451904 560.818970,951.403748 560.818970,997.998352 
	C550.223755,997.998352 539.959045,998.141846 529.709045,997.818848 
	C528.410522,997.778015 526.821777,995.487122 525.985291,993.910828 
	C501.279053,947.352661 476.651886,900.752563 452.006531,854.161987 
	C451.278595,852.785767 450.490387,851.441528 448.838806,850.330078 
	C448.838806,899.344849 448.838806,948.359680 448.838806,997.690063 
	C440.793152,997.690063 433.228394,997.690063 425.360107,997.690063 
	C425.360107,938.121704 425.360107,878.560425 425.360107,818.307556 
	C435.599976,818.307556 445.871948,818.161743 456.128845,818.488953 
	C457.435303,818.530762 459.029907,820.848145 459.873535,822.438782 
	C482.698944,865.476746 505.441956,908.558350 528.204529,951.629578 
	C530.827637,956.593079 533.484375,961.538818 536.898071,966.377869 
	C536.898071,917.250793 536.898071,868.123718 536.898071,818.642456 
	C545.007385,818.642456 552.570312,818.642456 560.818970,818.642456 
	C560.818970,831.983032 560.818970,845.241516 560.818970,859.000122 
z"/>
<path fill="#454545" opacity="1.000000" stroke="none" 
	d="
M1322.879395,1119.012207 
	C1332.789551,1120.520874 1341.802490,1123.184570 1349.712402,1128.885620 
	C1367.278442,1141.546265 1371.439209,1171.977173 1357.915771,1188.920532 
	C1352.814941,1195.311523 1345.878662,1198.578491 1337.196167,1200.757690 
	C1338.686035,1201.453247 1339.297485,1201.835205 1339.963501,1202.035645 
	C1364.739868,1209.493530 1376.316528,1230.131836 1372.494995,1256.536377 
	C1369.397461,1277.937256 1354.982544,1291.519897 1331.755005,1295.918091 
	C1325.566284,1297.089966 1319.203369,1297.806030 1312.910522,1297.879883 
	C1291.748413,1298.127930 1270.581665,1297.993774 1249.416748,1297.996582 
	C1248.455444,1297.996704 1247.494263,1297.905640 1246.307983,1297.845581 
	C1246.307983,1237.961426 1246.307983,1178.361938 1246.307983,1118.974121 
	C1271.655029,1118.974121 1297.047974,1118.974121 1322.879395,1119.012207 
M1270.278198,1232.500244 
	C1270.278198,1247.578735 1270.278198,1262.657227 1270.278198,1277.782471 
	C1286.061768,1277.782471 1301.223511,1278.470337 1316.295776,1277.602783 
	C1333.916626,1276.588623 1343.523193,1269.004150 1346.456543,1255.130371 
	C1347.471436,1250.330322 1347.702393,1245.181641 1347.251953,1240.287842 
	C1345.738770,1223.848999 1337.301147,1214.557861 1320.777832,1213.139893 
	C1305.412720,1211.821167 1289.892578,1212.300415 1274.440308,1212.013916 
	C1273.172852,1211.990356 1271.901855,1212.165527 1270.278198,1212.271362 
	C1270.278198,1218.916016 1270.278198,1225.208374 1270.278198,1232.500244 
M1270.278442,1157.500610 
	C1270.278442,1168.936646 1270.278442,1180.372559 1270.278442,1191.815308 
	C1285.691040,1191.815308 1300.508911,1192.353760 1315.264038,1191.624268 
	C1324.952148,1191.145264 1333.982422,1187.738647 1338.752319,1178.071167 
	C1346.959595,1161.437744 1338.900635,1142.588379 1320.733887,1139.856323 
	C1304.304443,1137.385498 1287.403320,1138.051025 1270.278442,1137.315063 
	C1270.278442,1144.573975 1270.278442,1150.537476 1270.278442,1157.500610 
z"/>
<path fill="#464646" opacity="1.000000" stroke="none" 
	d="
M598.949707,902.070190 
	C599.461609,887.997375 601.804077,874.763062 607.374390,862.312744 
	C623.191772,826.958862 654.578613,812.039307 691.782166,815.462646 
	C732.118896,819.174255 757.317322,849.342285 762.953979,886.335327 
	C766.000000,906.325989 765.462341,926.190430 759.107239,945.567383 
	C747.006897,982.461975 715.767578,1004.702026 671.920471,1000.571106 
	C629.460876,996.570801 604.590515,964.342590 600.077271,926.470764 
	C599.135376,918.567078 599.287292,910.533020 598.949707,902.070190 
M627.012817,933.359741 
	C627.992615,936.707947 628.824829,940.107788 629.975952,943.396057 
	C637.987793,966.283264 656.061951,980.330627 678.369385,981.098572 
	C704.109375,981.984680 722.546082,970.879028 731.945984,946.844360 
	C742.299194,920.371826 742.311340,893.300720 731.022400,867.066895 
	C721.969910,846.030029 705.460815,834.902710 682.073547,834.811829 
	C658.494812,834.720276 642.018188,845.954712 632.403503,866.919739 
	C622.750793,887.967834 622.691101,910.148438 627.012817,933.359741 
z"/>
<path fill="#464646" opacity="1.000000" stroke="none" 
	d="
M1428.748291,837.062744 
	C1415.106201,834.180603 1401.847168,834.148926 1388.684570,837.142273 
	C1365.248901,842.471619 1351.673706,857.771973 1346.328247,880.624512 
	C1342.058228,898.879761 1342.049805,917.348267 1346.369141,935.600525 
	C1352.624390,962.032288 1369.542114,976.888428 1396.775391,980.169556 
	C1413.704346,982.209167 1430.313721,981.073669 1446.205566,974.097717 
	C1449.212402,972.777893 1450.328491,971.095886 1450.277466,967.708069 
	C1450.061035,953.387268 1450.185669,939.061279 1450.185669,924.199829 
	C1437.163086,924.199829 1424.272705,924.199829 1411.077148,924.199829 
	C1411.077148,917.283386 1411.077148,910.899902 1411.077148,904.253845 
	C1432.034790,904.253845 1452.924438,904.253845 1474.204102,904.253845 
	C1474.204102,912.626404 1474.204102,920.751160 1474.204102,928.875977 
	C1474.203979,944.868896 1474.313110,960.863525 1474.068481,976.852722 
	C1474.037109,978.899414 1472.708862,981.800415 1471.061890,982.819092 
	C1438.947632,1002.682739 1404.636963,1006.734192 1369.133789,994.395081 
	C1344.668091,985.891968 1329.442627,967.449585 1322.433960,942.770264 
	C1315.695435,919.041809 1315.610107,894.957764 1323.077148,871.368469 
	C1332.744385,840.828796 1353.980957,822.694275 1385.395752,817.017883 
	C1413.304077,811.975098 1440.038208,815.812622 1465.211060,829.365479 
	C1468.541382,831.158508 1470.033691,833.148438 1469.793823,837.100708 
	C1469.402466,843.546387 1469.687988,850.033142 1469.687988,857.744263 
	C1457.075073,847.785767 1444.049072,840.523743 1428.748291,837.062744 
z"/>
<path fill="#464646" opacity="1.000000" stroke="none" 
	d="
M1181.780884,1197.208252 
	C1194.581543,1230.922363 1207.245972,1264.272339 1220.055054,1298.003174 
	C1212.182739,1298.003174 1204.854248,1298.176025 1197.548462,1297.846313 
	C1196.210205,1297.786011 1194.309692,1295.924927 1193.777222,1294.485229 
	C1188.597778,1280.479614 1183.654419,1266.386719 1178.531738,1252.004272 
	C1167.014160,1252.004272 1155.541626,1252.004150 1144.069214,1252.004272 
	C1130.246216,1252.004272 1116.419800,1252.176392 1102.602539,1251.895020 
	C1098.688599,1251.815186 1097.186890,1253.276978 1096.017822,1256.719360 
	C1091.372314,1270.397095 1086.455566,1283.982544 1081.575317,1297.783203 
	C1073.235474,1297.783203 1064.940186,1297.783203 1056.043213,1297.783203 
	C1058.021118,1292.584473 1059.935059,1287.548340 1061.852783,1282.513794 
	C1082.074951,1229.426514 1102.343872,1176.357056 1122.422241,1123.215454 
	C1123.850830,1119.434326 1125.627686,1118.142944 1129.582031,1118.389893 
	C1135.388306,1118.752808 1141.245728,1118.705322 1147.058838,1118.401367 
	C1150.609619,1118.215698 1152.250854,1119.416504 1153.507446,1122.774414 
	C1162.763916,1147.510254 1172.238647,1172.164185 1181.780884,1197.208252 
M1109.453125,1219.962524 
	C1108.120972,1223.778076 1106.788818,1227.593506 1105.393921,1231.588867 
	C1127.601196,1231.588867 1149.003418,1231.588867 1170.930542,1231.588867 
	C1160.013916,1202.042969 1149.250122,1172.910522 1137.975830,1142.396729 
	C1128.195435,1169.060791 1118.990479,1194.155640 1109.453125,1219.962524 
z"/>
<path fill="#464646" opacity="1.000000" stroke="none" 
	d="
M1180.264648,897.259399 
	C1189.835205,872.227539 1199.337158,847.585144 1208.594116,822.851074 
	C1209.852783,819.487854 1211.392212,818.232971 1214.984131,818.398926 
	C1221.465454,818.698486 1227.978516,818.310913 1234.459595,818.613281 
	C1235.975220,818.683960 1238.266113,820.039917 1238.768555,821.352661 
	C1261.161499,879.837097 1283.394043,938.382935 1305.636230,996.925049 
	C1305.687256,997.059631 1305.597412,997.247803 1305.486816,997.999329 
	C1298.027954,997.999329 1290.466187,998.149536 1282.923462,997.839050 
	C1281.779419,997.791931 1280.224243,995.788696 1279.704834,994.378845 
	C1275.054565,981.753967 1270.594604,969.059143 1266.076416,956.385681 
	C1265.583862,955.004028 1265.077393,953.627380 1264.489014,952.004395 
	C1248.064819,952.004395 1231.760010,952.004395 1215.455200,952.004395 
	C1206.295410,952.004395 1197.131836,952.155762 1187.978027,951.922424 
	C1184.770386,951.840759 1183.335571,952.858154 1182.302490,955.893250 
	C1177.543945,969.871216 1172.531006,983.762512 1167.565308,997.809570 
	C1159.118286,997.809570 1150.820557,997.809570 1142.021362,997.809570 
	C1154.767944,964.288330 1167.443481,930.954163 1180.264648,897.259399 
M1241.869873,890.672241 
	C1236.070923,875.056702 1230.271851,859.441162 1223.963745,842.454590 
	C1212.725830,873.058960 1202.029053,902.189697 1191.248535,931.548401 
	C1213.661743,931.548401 1235.044556,931.548401 1256.909912,931.548401 
	C1251.857056,917.887146 1246.963623,904.657104 1241.869873,890.672241 
z"/>
<path fill="#464646" opacity="1.000000" stroke="none" 
	d="
M709.351685,1202.324707 
	C719.639587,1175.434082 729.829163,1148.919800 739.796143,1122.321899 
	C740.951050,1119.240234 742.434692,1118.317017 745.549500,1118.417847 
	C752.204224,1118.633545 758.878601,1118.312378 765.526428,1118.615967 
	C767.027222,1118.684326 769.285095,1120.088989 769.792603,1121.415039 
	C792.177490,1179.900879 814.405090,1238.447144 836.641357,1296.989868 
	C836.691956,1297.123047 836.591309,1297.313721 836.466064,1297.997681 
	C828.996399,1297.997681 821.416504,1298.148560 813.855896,1297.834717 
	C812.724426,1297.787964 811.199524,1295.740723 810.676086,1294.317505 
	C806.031860,1281.690308 801.573242,1268.994873 797.057373,1256.320435 
	C796.567261,1254.945068 796.061340,1253.575073 795.490784,1252.004395 
	C774.336914,1252.004395 753.367249,1252.004395 732.397522,1252.004395 
	C727.734314,1252.004395 723.059021,1252.207520 718.412415,1251.930298 
	C715.503723,1251.756592 714.391418,1252.912231 713.496094,1255.505859 
	C708.625610,1269.614258 703.567200,1283.657715 698.537781,1297.823975 
	C690.063232,1297.823975 681.773743,1297.823975 673.017883,1297.823975 
	C685.131470,1265.957520 697.159241,1234.316772 709.351685,1202.324707 
M753.667908,1146.142456 
	C743.210388,1174.536743 732.752869,1202.930908 722.166199,1231.675781 
	C744.545288,1231.675781 765.952332,1231.675781 787.733704,1231.675781 
	C787.090210,1229.694946 786.593140,1227.968994 785.973694,1226.288208 
	C779.491455,1208.696899 772.989319,1191.113159 766.493164,1173.526978 
	C763.158752,1164.500122 759.842163,1155.466919 756.479004,1146.450806 
	C755.692200,1144.341431 755.620422,1144.368164 753.667908,1146.142456 
z"/>
<path fill="#464646" opacity="1.000000" stroke="none" 
	d="
M415.269531,1176.261841 
	C422.237427,1158.058594 429.153778,1140.250977 435.788147,1122.338867 
	C436.927490,1119.262817 438.403442,1118.314331 441.531097,1118.417114 
	C448.185547,1118.636108 454.860016,1118.313110 461.507965,1118.615234 
	C463.012451,1118.683472 465.279785,1120.075317 465.785950,1121.397705 
	C488.174805,1179.882812 510.405548,1238.428467 532.644836,1296.970825 
	C532.695496,1297.104004 532.594788,1297.294678 532.466003,1297.998169 
	C525.005310,1297.998169 517.430725,1298.148926 509.875275,1297.836060 
	C508.740204,1297.789185 507.206635,1295.754517 506.684326,1294.335083 
	C502.038208,1281.708618 497.578949,1269.013428 493.062256,1256.339355 
	C492.571411,1254.962158 492.065369,1253.590332 491.489594,1252.004395 
	C471.687958,1252.004395 452.051147,1252.004395 432.414368,1252.004395 
	C426.418884,1252.004395 420.416016,1252.179932 414.431061,1251.928955 
	C411.546326,1251.807739 410.403229,1252.875488 409.502441,1255.487183 
	C404.635406,1269.598755 399.573059,1283.642822 394.539185,1297.819580 
	C386.076935,1297.819580 377.782501,1297.819580 369.013458,1297.819580 
	C384.435913,1257.281982 399.779358,1216.952026 415.269531,1176.261841 
M434.590271,1187.084229 
	C429.168549,1201.833496 423.746796,1216.582764 418.205261,1231.657837 
	C440.503082,1231.657837 461.935852,1231.657837 483.948975,1231.657837 
	C473.045319,1202.133301 462.278076,1172.978149 450.989471,1142.411133 
	C445.248047,1158.067871 440.061371,1172.211914 434.590271,1187.084229 
z"/>
<path fill="#454545" opacity="1.000000" stroke="none" 
	d="
M1634.000000,1139.001465 
	C1614.681396,1139.001465 1595.862915,1139.001465 1576.663330,1139.001465 
	C1576.663330,1156.594116 1576.663330,1173.971191 1576.663330,1191.905029 
	C1604.851074,1191.905029 1633.059082,1191.905029 1661.519531,1191.905029 
	C1661.519531,1198.870605 1661.519531,1205.283447 1661.519531,1212.384766 
	C1633.151733,1212.384766 1604.953979,1212.384766 1576.524048,1212.384766 
	C1576.524048,1234.325684 1576.524048,1255.580933 1576.524048,1277.409424 
	C1606.714478,1277.409424 1636.781128,1277.409424 1667.232422,1277.409424 
	C1667.232422,1284.507690 1667.232422,1291.042358 1667.232422,1297.791992 
	C1628.987671,1297.791992 1590.884521,1297.791992 1552.424561,1297.791992 
	C1552.424561,1238.272217 1552.424561,1178.746094 1552.424561,1118.900391 
	C1589.870972,1118.900391 1627.260742,1118.900391 1664.997925,1118.900391 
	C1664.997925,1125.467529 1664.997925,1132.007690 1664.997925,1139.001465 
	C1654.750488,1139.001465 1644.625244,1139.001465 1634.000000,1139.001465 
z"/>
<path fill="#454545" opacity="1.000000" stroke="none" 
	d="
M1631.248779,820.001221 
	C1631.315552,826.476746 1631.315552,832.453796 1631.315552,838.915161 
	C1601.648193,838.915161 1572.244141,838.915161 1542.562866,838.915161 
	C1542.562866,856.792725 1542.562866,874.182861 1542.562866,891.932434 
	C1570.922607,891.932434 1599.023315,891.932434 1627.449707,891.932434 
	C1627.449707,898.837219 1627.449707,905.384460 1627.449707,912.432251 
	C1599.101318,912.432251 1571.014893,912.432251 1542.607666,912.432251 
	C1542.607666,934.174133 1542.607666,955.421204 1542.607666,977.396973 
	C1572.706543,977.396973 1602.895752,977.396973 1633.349121,977.396973 
	C1633.349121,984.547302 1633.349121,990.973877 1633.349121,997.701965 
	C1595.005859,997.701965 1556.796509,997.701965 1518.327148,997.701965 
	C1518.327148,938.197144 1518.327148,878.798950 1518.327148,818.889648 
	C1519.896973,818.787415 1521.476929,818.595642 1523.056763,818.594849 
	C1557.542603,818.577698 1592.028442,818.569580 1626.514282,818.620728 
	C1628.070557,818.623047 1629.626099,819.195862 1631.248779,820.001221 
z"/>
<path fill="#464646" opacity="1.000000" stroke="none" 
	d="
M551.494751,1132.486084 
	C568.584717,1177.913818 585.496826,1222.994751 602.834839,1269.210938 
	C603.863098,1266.826172 604.526184,1265.445923 605.063965,1264.018555 
	C622.752808,1217.062744 640.466492,1170.116333 658.032715,1123.114746 
	C659.331543,1119.639404 660.900574,1118.161743 664.772827,1118.380859 
	C671.233704,1118.746460 677.730164,1118.480591 684.683411,1118.480591 
	C684.251038,1120.070068 684.023804,1121.308716 683.583435,1122.466431 
	C661.843140,1179.610840 640.055176,1236.737427 618.407104,1293.916870 
	C617.218079,1297.057251 615.855530,1298.240479 612.414429,1298.101807 
	C604.774963,1297.793945 597.114563,1298.005859 589.318115,1298.005859 
	C566.553467,1238.264404 543.864197,1178.720947 520.912903,1118.489624 
	C529.069641,1118.489624 536.517456,1118.366333 543.952393,1118.619751 
	C545.097229,1118.658813 546.645508,1120.218506 547.208008,1121.442383 
	C548.799866,1124.906006 549.976685,1128.560303 551.494751,1132.486084 
z"/>
<path fill="#454545" opacity="1.000000" stroke="none" 
	d="
M959.283752,1197.000244 
	C959.283752,1223.952637 959.283752,1250.405151 959.283752,1277.408569 
	C988.482971,1277.408569 1017.209839,1277.408569 1046.308838,1277.408569 
	C1046.308838,1284.485596 1046.308838,1291.015259 1046.308838,1297.756836 
	C1009.277344,1297.756836 972.390259,1297.756836 935.284912,1297.756836 
	C935.284912,1238.095093 935.284912,1178.678955 935.284912,1118.874512 
	C943.020508,1118.874512 950.750061,1118.874512 959.283752,1118.874512 
	C959.283752,1144.717407 959.283752,1170.608765 959.283752,1197.000244 
z"/>
<path fill="#454545" opacity="1.000000" stroke="none" 
	d="
M1415.066406,1184.000000 
	C1415.066406,1162.031494 1415.066406,1140.562866 1415.066406,1118.791260 
	C1423.149170,1118.791260 1430.905518,1118.791260 1439.267212,1118.791260 
	C1439.267212,1171.625977 1439.267212,1224.328491 1439.267212,1277.556030 
	C1468.608398,1277.556030 1497.353760,1277.556030 1526.389160,1277.556030 
	C1526.389160,1284.489258 1526.389160,1290.899170 1526.389160,1297.657593 
	C1489.467163,1297.657593 1452.588745,1297.657593 1415.066406,1297.657593 
	C1415.066406,1259.985718 1415.066406,1222.242920 1415.066406,1184.000000 
z"/>
<path fill="#454545" opacity="1.000000" stroke="none" 
	d="
M887.284058,1154.000244 
	C887.284058,1202.106079 887.284058,1249.711792 887.284058,1297.660156 
	C879.240356,1297.660156 871.372131,1297.660156 863.283203,1297.660156 
	C863.283203,1237.984619 863.283203,1178.461548 863.283203,1118.615967 
	C871.159363,1118.615967 878.889343,1118.615967 887.284058,1118.615967 
	C887.284058,1130.322144 887.284058,1141.911133 887.284058,1154.000244 
z"/>
<path fill="#454545" opacity="1.000000" stroke="none" 
	d="
M880.066284,866.000000 
	C880.066284,850.026306 880.066284,834.552612 880.066284,818.686890 
	C888.009460,818.686890 895.729980,818.686890 903.869873,818.686890 
	C903.869873,878.256104 903.869873,937.879700 903.869873,997.753662 
	C896.134338,997.753662 888.388000,997.753662 880.066284,997.753662 
	C880.066284,953.936951 880.066284,910.218506 880.066284,866.000000 
z"/>
<path fill="#FDFDFD" opacity="1.000000" stroke="none" 
	d="
M1270.278198,1232.000488 
	C1270.278198,1225.208374 1270.278198,1218.916016 1270.278198,1212.271362 
	C1271.901855,1212.165527 1273.172852,1211.990356 1274.440308,1212.013916 
	C1289.892578,1212.300415 1305.412720,1211.821167 1320.777832,1213.139893 
	C1337.301147,1214.557861 1345.738770,1223.848999 1347.251953,1240.287842 
	C1347.702393,1245.181641 1347.471436,1250.330322 1346.456543,1255.130371 
	C1343.523193,1269.004150 1333.916626,1276.588623 1316.295776,1277.602783 
	C1301.223511,1278.470337 1286.061768,1277.782471 1270.278198,1277.782471 
	C1270.278198,1262.657227 1270.278198,1247.578735 1270.278198,1232.000488 
z"/>
<path fill="#FDFDFD" opacity="1.000000" stroke="none" 
	d="
M1270.278442,1157.000732 
	C1270.278442,1150.537476 1270.278442,1144.573975 1270.278442,1137.315063 
	C1287.403320,1138.051025 1304.304443,1137.385498 1320.733887,1139.856323 
	C1338.900635,1142.588379 1346.959595,1161.437744 1338.752319,1178.071167 
	C1333.982422,1187.738647 1324.952148,1191.145264 1315.264038,1191.624268 
	C1300.508911,1192.353760 1285.691040,1191.815308 1270.278442,1191.815308 
	C1270.278442,1180.372559 1270.278442,1168.936646 1270.278442,1157.000732 
z"/>
<path fill="#FEFEFE" opacity="1.000000" stroke="none" 
	d="
M626.941711,932.944763 
	C622.691101,910.148438 622.750793,887.967834 632.403503,866.919739 
	C642.018188,845.954712 658.494812,834.720276 682.073547,834.811829 
	C705.460815,834.902710 721.969910,846.030029 731.022400,867.066895 
	C742.311340,893.300720 742.299194,920.371826 731.945984,946.844360 
	C722.546082,970.879028 704.109375,981.984680 678.369385,981.098572 
	C656.061951,980.330627 637.987793,966.283264 629.975952,943.396057 
	C628.824829,940.107788 627.992615,936.707947 626.941711,932.944763 
z"/>
<path fill="#FDFDFD" opacity="1.000000" stroke="none" 
	d="
M1109.619385,1219.606567 
	C1118.990479,1194.155640 1128.195435,1169.060791 1137.975830,1142.396729 
	C1149.250122,1172.910522 1160.013916,1202.042969 1170.930542,1231.588867 
	C1149.003418,1231.588867 1127.601196,1231.588867 1105.393921,1231.588867 
	C1106.788818,1227.593506 1108.120972,1223.778076 1109.619385,1219.606567 
z"/>
<path fill="#FDFDFD" opacity="1.000000" stroke="none" 
	d="
M1241.970093,891.049683 
	C1246.963623,904.657104 1251.857056,917.887146 1256.909912,931.548401 
	C1235.044556,931.548401 1213.661743,931.548401 1191.248535,931.548401 
	C1202.029053,902.189697 1212.725830,873.058960 1223.963745,842.454590 
	C1230.271851,859.441162 1236.070923,875.056702 1241.970093,891.049683 
z"/>
<path fill="#FDFDFD" opacity="1.000000" stroke="none" 
	d="
M753.796753,1145.777710 
	C755.620422,1144.368164 755.692200,1144.341431 756.479004,1146.450806 
	C759.842163,1155.466919 763.158752,1164.500122 766.493164,1173.526978 
	C772.989319,1191.113159 779.491455,1208.696899 785.973694,1226.288208 
	C786.593140,1227.968994 787.090210,1229.694946 787.733704,1231.675781 
	C765.952332,1231.675781 744.545288,1231.675781 722.166199,1231.675781 
	C732.752869,1202.930908 743.210388,1174.536743 753.796753,1145.777710 
z"/>
<path fill="#FDFDFD" opacity="1.000000" stroke="none" 
	d="
M434.732483,1186.720093 
	C440.061371,1172.211914 445.248047,1158.067871 450.989471,1142.411133 
	C462.278076,1172.978149 473.045319,1202.133301 483.948975,1231.657837 
	C461.935852,1231.657837 440.503082,1231.657837 418.205261,1231.657837 
	C423.746796,1216.582764 429.168549,1201.833496 434.732483,1186.720093 
z"/>
</svg>